<svg width="51" height="78" viewBox="0 0 51 78" fill="none" xmlns="http://www.w3.org/2000/svg">
<g clip-path="url(#clip0_1_1427)">
<path d="M12.6024 77.6997C19.5562 77.6997 25.1999 71.9205 25.1999 64.7997V51.8997H12.6024C5.64861 51.8997 0.00494385 57.6789 0.00494385 64.7997C0.00494385 71.9205 5.64861 77.6997 12.6024 77.6997Z" fill="#0ACF83"/>
<path d="M0.00494385 38.9999C0.00494385 31.8791 5.64861 26.0999 12.6024 26.0999H25.1999V51.8999H12.6024C5.64861 51.8999 0.00494385 46.1207 0.00494385 38.9999Z" fill="#A259FF"/>
<path d="M0.00494385 13.1998C0.00494385 6.07899 5.64861 0.299789 12.6024 0.299789H25.1999V26.0998H12.6024C5.64861 26.0998 0.00494385 20.3206 0.00494385 13.1998Z" fill="#F24E1E"/>
<path d="M25.2001 0.299789H37.7976C44.7514 0.299789 50.3951 6.07899 50.3951 13.1998C50.3951 20.3206 44.7514 26.0998 37.7976 26.0998H25.2001V0.299789Z" fill="#FF7262"/>
<path d="M50.3951 38.9999C50.3951 46.1207 44.7514 51.8999 37.7976 51.8999C30.8438 51.8999 25.2001 46.1207 25.2001 38.9999C25.2001 31.8791 30.8438 26.0999 37.7976 26.0999C44.7514 26.0999 50.3951 31.8791 50.3951 38.9999Z" fill="#1ABCFE"/>
</g>
<defs>
<clipPath id="clip0_1_1427">
<rect width="50.4" height="77.4" fill="white" transform="translate(0 0.299942)"/>
</clipPath>
</defs>
</svg>
