<svg width="44" height="44" viewBox="0 0 44 44" fill="none" xmlns="http://www.w3.org/2000/svg">
<g clip-path="url(#clip0_1_1456)">
<path d="M22.2381 43.1746C34.1604 43.1746 43.8254 33.5096 43.8254 21.5873C43.8254 9.66496 34.1604 0 22.2381 0C10.3157 0 0.650757 9.66496 0.650757 21.5873C0.650757 33.5096 10.3157 43.1746 22.2381 43.1746Z" fill="#FF4500"/>
<path d="M36.6295 21.5873C36.6295 19.8452 35.2156 18.4313 33.4735 18.4313C32.6151 18.4313 31.8576 18.7595 31.3022 19.315C29.156 17.7748 26.1767 16.7649 22.8945 16.6386L24.3336 9.89735L29.0046 10.882C29.0551 12.0687 30.0397 13.0281 31.2517 13.0281C32.4888 13.0281 33.4988 12.0182 33.4988 10.781C33.4988 9.54387 32.4888 8.53394 31.2517 8.53394C30.368 8.53394 29.6105 9.03891 29.257 9.79635L24.0306 8.68543C23.8792 8.66018 23.7277 8.68543 23.6014 8.76117C23.4752 8.83692 23.3994 8.96316 23.3489 9.11465L21.7583 16.6386C18.4003 16.7396 15.3957 17.7243 13.2244 19.315C12.6689 18.7848 11.8862 18.4313 11.053 18.4313C9.31088 18.4313 7.89697 19.8452 7.89697 21.5873C7.89697 22.875 8.65442 23.9607 9.76535 24.4656C9.71485 24.7686 9.6896 25.0968 9.6896 25.4251C9.6896 30.2727 15.32 34.1862 22.2885 34.1862C29.257 34.1862 34.8874 30.2727 34.8874 25.4251C34.8874 25.0968 34.8622 24.7938 34.8117 24.4909C35.8468 23.9859 36.6295 22.875 36.6295 21.5873ZM15.0422 23.8344C15.0422 22.5972 16.0522 21.5873 17.2893 21.5873C18.5265 21.5873 19.5364 22.5972 19.5364 23.8344C19.5364 25.0716 18.5265 26.0815 17.2893 26.0815C16.0522 26.0815 15.0422 25.0716 15.0422 23.8344ZM27.5907 29.7678C26.0505 31.3079 23.1217 31.4089 22.2633 31.4089C21.4048 31.4089 18.4508 31.2827 16.9359 29.7678C16.7086 29.5405 16.7086 29.1618 16.9359 28.9346C17.1631 28.7073 17.5418 28.7073 17.7691 28.9346C18.7285 29.894 20.7989 30.2475 22.2885 30.2475C23.7782 30.2475 25.8233 29.894 26.808 28.9346C27.0352 28.7073 27.4139 28.7073 27.6411 28.9346C27.8179 29.1871 27.8179 29.5405 27.5907 29.7678ZM27.1867 26.0815C25.9495 26.0815 24.9396 25.0716 24.9396 23.8344C24.9396 22.5972 25.9495 21.5873 27.1867 21.5873C28.4238 21.5873 29.4338 22.5972 29.4338 23.8344C29.4338 25.0716 28.4238 26.0815 27.1867 26.0815Z" fill="white"/>
</g>
<defs>
<clipPath id="clip0_1_1456">
<rect width="43.1746" height="43.1746" fill="white" transform="translate(0.650757)"/>
</clipPath>
</defs>
</svg>
