<svg width="44" height="44" viewBox="0 0 44 44" fill="none" xmlns="http://www.w3.org/2000/svg">
<rect x="0.687744" width="43.1746" height="43.1746" rx="21.5873" fill="url(#paint0_linear_1_1455)"/>
<path fill-rule="evenodd" clip-rule="evenodd" d="M10.4597 21.3595C16.7528 18.6176 20.9492 16.8101 23.0489 15.9367C29.0439 13.4432 30.2896 13.01 31.1016 12.9957C31.2802 12.9926 31.6794 13.0369 31.9381 13.2467C32.1565 13.4239 32.2166 13.6633 32.2453 13.8313C32.2741 13.9994 32.3099 14.3821 32.2814 14.6812C31.9565 18.0946 30.5508 26.3782 29.8357 30.2013C29.5331 31.819 28.9372 32.3614 28.3604 32.4145C27.1068 32.5299 26.1548 31.586 24.9406 30.7901C23.0407 29.5447 21.9673 28.7694 20.1231 27.5541C17.9917 26.1495 19.3734 25.3776 20.588 24.116C20.9059 23.7858 26.4294 18.7618 26.5363 18.3061C26.5497 18.2491 26.5621 18.0366 26.4358 17.9244C26.3096 17.8122 26.1233 17.8506 25.9889 17.8811C25.7983 17.9244 22.7631 19.9305 16.8832 23.8996C16.0217 24.4912 15.2413 24.7794 14.5422 24.7643C13.7714 24.7477 12.2887 24.3285 11.1865 23.9702C9.83461 23.5308 8.76014 23.2984 8.8537 22.5521C8.90243 22.1634 9.43776 21.7658 10.4597 21.3595Z" fill="white"/>
<defs>
<linearGradient id="paint0_linear_1_1455" x1="22.275" y1="0" x2="22.275" y2="42.8544" gradientUnits="userSpaceOnUse">
<stop stop-color="#2AABEE"/>
<stop offset="1" stop-color="#229ED9"/>
</linearGradient>
</defs>
</svg>
