<svg width="44" height="44" viewBox="0 0 44 44" fill="none" xmlns="http://www.w3.org/2000/svg">
<rect x="0.724854" width="43.1746" height="43.1746" rx="21.5873" fill="#1D9BF0"/>
<path d="M18.3617 32.9746C27.9356 32.9746 33.1705 25.0413 33.1705 18.1657C33.1705 17.9391 33.1705 17.7124 33.1598 17.4965C34.1744 16.7626 35.0594 15.8451 35.761 14.7981C34.8328 15.2083 33.829 15.4889 32.7712 15.6184C33.8505 14.9708 34.6709 13.9562 35.0594 12.7365C34.0556 13.3302 32.9439 13.7619 31.7566 13.9994C30.8067 12.9848 29.4575 12.3587 27.9572 12.3587C25.0861 12.3587 22.7547 14.6902 22.7547 17.5613C22.7547 17.9714 22.7978 18.3708 22.895 18.7486C18.5667 18.5327 14.735 16.4603 12.1661 13.3086C11.7236 14.0749 11.4645 14.9708 11.4645 15.9206C11.4645 17.7232 12.382 19.3206 13.7852 20.2489C12.9325 20.2273 12.1337 19.9899 11.4321 19.6013C11.4321 19.6229 11.4321 19.6445 11.4321 19.666C11.4321 22.1918 13.2239 24.2857 15.6093 24.7714C15.1775 24.8902 14.7134 24.9549 14.2385 24.9549C13.9039 24.9549 13.5801 24.9226 13.2563 24.8578C13.9147 26.9302 15.8359 28.4305 18.1134 28.4737C16.3325 29.866 14.0874 30.6972 11.648 30.6972C11.2271 30.6972 10.8169 30.6756 10.4067 30.6216C12.6842 32.1111 15.4258 32.9746 18.3617 32.9746Z" fill="white"/>
</svg>
